<?xml version="1.0" encoding="UTF-8"?>
<svg width="128" height="128" viewBox="0 0 128 128" fill="none" xmlns="http://www.w3.org/2000/svg" role="img" aria-label="Edusync logo">
  <defs>
    <linearGradient id="g" x1="0" y1="0" x2="1" y2="1">
      <stop offset="0%" stop-color="#4F46E5"/>
      <stop offset="100%" stop-color="#9333EA"/>
    </linearGradient>
    <filter id="s" x="-20%" y="-20%" width="140%" height="140%">
      <feDropShadow dx="0" dy="2" stdDeviation="3" flood-color="#000" flood-opacity="0.2"/>
    </filter>
  </defs>
  <rect x="8" y="8" width="112" height="112" rx="24" fill="url(#g)" filter="url(#s)"/>
  <g transform="translate(24,24)">
    <path d="M24 20C24 13.3726 29.3726 8 36 8H64C66.2091 8 68 6.20914 68 4C68 1.79086 66.2091 0 64 0H36C22.7452 0 12 10.7452 12 24V56C12 69.2548 22.7452 80 36 80H64C66.2091 80 68 78.2091 68 76C68 73.7909 66.2091 72 64 72H36C29.3726 72 24 66.6274 24 60V20Z" fill="white"/>
    <rect x="24" y="36" width="40" height="8" rx="4" fill="#E0E7FF"/>
  </g>
</svg>
